<?xml version="1.0" encoding="utf-8" ?>
<svg baseProfile="tiny" height="650" version="1.2" width="646" xmlns="http://www.w3.org/2000/svg" xmlns:ev="http://www.w3.org/2001/xml-events" xmlns:xlink="http://www.w3.org/1999/xlink"><defs /><rect fill="#F4A460" height="650" width="646" x="0" y="0" /><polygon fill="white" points="433,146 432,147 421,147 420,148 413,148 412,149 399,149 398,150 388,150 387,151 386,151 385,150 372,150 371,151 237,151 236,150 235,150 234,151 224,151 223,150 212,150 211,151 210,151 209,150 198,150 197,149 190,149 189,150 188,149 164,149 163,148 154,148 154,162 155,163 155,166 156,165 158,167 161,167 162,168 167,168 168,169 172,169 173,170 179,170 180,171 183,171 184,172 186,172 187,173 189,173 190,174 192,174 194,176 195,176 196,177 197,177 198,178 198,180 200,182 200,183 201,184 201,186 202,187 202,190 203,191 203,214 204,215 204,313 205,314 205,337 204,338 204,341 205,342 205,345 204,346 204,427 203,428 203,439 204,440 204,441 203,442 203,458 202,459 202,462 201,463 201,464 200,465 200,466 195,471 194,471 193,472 192,472 190,474 187,474 186,475 182,475 181,476 180,476 179,477 173,477 172,478 169,478 168,479 163,479 162,480 159,480 158,481 155,481 154,482 154,499 158,499 158,498 159,497 160,498 201,498 202,497 230,497 231,496 245,496 246,497 248,497 249,496 258,496 259,497 263,497 264,496 269,496 270,497 272,497 273,496 282,496 283,497 287,497 288,496 293,496 294,497 296,497 297,496 306,496 307,497 308,497 309,496 318,496 319,497 320,497 321,496 330,496 331,497 335,497 336,496 341,496 342,497 344,497 345,496 354,496 355,497 404,497 405,498 406,498 407,497 409,497 410,498 430,498 431,497 433,497 434,498 442,498 443,499 449,499 449,493 450,492 450,484 451,483 451,475 452,474 452,465 453,464 453,455 454,454 454,451 455,450 455,441 456,440 456,433 457,432 457,425 458,424 458,418 459,417 459,413 458,412 459,411 459,409 460,408 460,407 459,406 459,402 461,400 461,396 452,396 451,397 447,397 446,398 445,397 445,399 444,400 444,402 442,404 442,405 443,406 439,410 439,413 438,414 438,415 437,416 437,417 436,418 436,420 435,421 435,422 434,423 434,424 433,425 433,426 432,427 432,429 431,430 431,433 430,434 429,434 429,436 428,437 428,438 427,439 427,440 426,441 426,443 425,444 425,445 423,447 423,448 421,450 421,451 420,452 420,455 419,456 418,455 418,454 418,455 415,458 415,459 414,460 414,461 413,462 412,462 409,465 408,465 406,467 405,467 403,469 402,469 401,470 400,470 399,471 397,471 396,472 395,472 394,473 392,473 391,474 388,474 387,475 379,475 378,476 283,476 282,475 279,475 278,474 275,474 274,473 272,473 271,472 270,472 269,471 268,471 265,468 264,468 263,467 263,466 260,463 260,462 259,461 259,460 258,459 258,458 257,457 257,454 256,453 256,445 255,444 255,333 256,332 302,332 303,333 322,333 323,334 335,334 336,335 339,335 340,336 341,336 342,337 343,337 350,344 350,345 352,347 352,348 353,349 353,351 354,352 354,354 355,355 355,357 356,358 356,362 357,363 357,367 358,367 359,368 359,369 358,370 358,371 359,372 359,375 360,376 360,379 361,380 361,383 379,383 380,382 380,379 379,378 379,347 378,346 378,308 379,307 379,288 380,287 380,271 381,270 381,259 380,258 363,258 363,259 362,260 363,261 362,262 362,263 361,264 361,265 360,266 360,270 359,271 359,276 358,277 358,279 357,280 357,284 356,285 356,287 355,288 355,291 354,292 354,295 353,296 353,297 351,299 351,300 350,301 350,302 348,304 347,304 347,305 346,306 345,306 344,307 341,307 340,308 339,308 338,309 334,309 333,310 321,310 320,311 289,311 288,312 258,312 256,310 256,308 255,307 255,181 256,180 256,175 257,174 257,173 258,172 260,172 261,171 382,171 383,172 385,172 386,173 388,173 389,174 390,174 391,175 392,175 393,176 394,176 397,179 397,180 398,180 400,182 400,183 403,186 403,187 405,189 405,190 406,191 406,192 407,193 407,195 409,197 409,199 410,200 410,201 411,202 411,204 412,205 412,208 413,209 413,212 414,213 414,215 415,216 415,218 416,219 416,222 417,223 417,226 418,227 418,230 420,232 419,233 419,234 420,235 420,238 421,239 421,242 422,243 438,243 438,239 439,238 439,233 438,232 438,227 439,226 439,217 440,216 440,203 441,202 441,185 442,184 442,176 441,175 441,173 442,172 442,166 443,165 442,164 443,163 443,155 444,154 444,146 435,146 434,147" /></svg>